<?xml version="1.0" encoding="UTF-8"?> <svg xmlns="http://www.w3.org/2000/svg" width="3477" height="892" viewBox="0 0 3477 892" fill="none"><g clip-path="url(#clip0_9_110)"><path d="M1666.96 666.648C1666.96 671.187 1663.49 674.658 1658.95 674.658H1646.14C1641.6 674.658 1638.12 671.187 1638.12 666.648V513.652C1638.12 509.38 1634.39 505.642 1630.11 505.642H1590.6C1586.06 505.642 1582.59 509.38 1582.59 513.652V666.648C1582.59 671.187 1578.85 674.658 1574.58 674.658H1561.49C1557.22 674.658 1553.48 671.187 1553.48 666.648V513.652C1553.48 509.38 1550.01 505.642 1545.74 505.642H1505.96C1501.68 505.642 1497.95 509.38 1497.95 513.652V666.648C1497.95 671.187 1494.47 674.658 1490.2 674.658H1477.12C1472.58 674.658 1469.11 671.187 1469.11 666.648V540.086C1469.11 535.814 1470.71 531.541 1473.91 528.604L1490.74 511.516C1495.01 507.511 1497.41 501.903 1497.41 496.029V484.815C1497.41 480.276 1500.88 476.805 1505.15 476.805H1546.54C1550.81 476.805 1554.28 480.276 1554.28 484.815V496.83C1554.28 501.369 1558.02 504.841 1562.29 504.841H1573.78C1578.31 504.841 1581.79 501.369 1581.79 496.83V484.815C1581.79 480.276 1585.26 476.805 1589.8 476.805H1630.92C1635.19 476.805 1638.93 480.276 1638.93 484.815V496.029C1638.93 501.903 1641.33 507.511 1645.33 511.516L1662.42 528.604C1665.36 531.541 1666.96 535.547 1666.96 539.819V666.648Z" fill="white"></path><path d="M1834.47 666.648V604.168H1744.49C1740.22 604.168 1736.48 607.906 1736.48 612.178V666.648C1736.48 671.187 1733.01 674.658 1728.74 674.658H1715.66C1711.12 674.658 1707.65 671.187 1707.65 666.648V611.377C1707.65 607.105 1711.12 603.367 1715.66 603.367H1726.87C1732.74 603.367 1738.35 601.231 1742.62 596.959L1759.44 580.137C1762.38 576.933 1766.65 575.331 1770.66 575.331H1834.47V513.652C1834.47 509.38 1830.74 505.642 1826.46 505.642H1744.49C1740.22 505.642 1736.48 509.38 1736.48 513.652V568.122C1736.48 572.661 1733.01 576.132 1728.74 576.132H1715.66C1711.12 576.132 1707.65 572.661 1707.65 568.122V540.086C1707.65 535.814 1709.25 531.808 1712.18 528.604L1729.27 511.516C1733.55 507.511 1735.68 501.903 1735.68 496.029V484.815C1735.68 480.276 1739.42 476.805 1743.69 476.805H1827.27C1831.54 476.805 1835.28 480.276 1835.28 484.815V496.029C1835.28 501.903 1837.41 507.511 1841.68 511.516L1858.51 528.604C1861.71 531.541 1863.31 535.547 1863.31 539.819V666.648C1863.31 671.187 1859.84 674.658 1855.3 674.658H1842.22C1837.95 674.658 1834.47 671.187 1834.47 666.648Z" fill="white"></path><path d="M2051.44 504.841C2055.97 504.841 2059.45 508.579 2059.45 512.851V582.273C2059.45 586.545 2055.97 590.283 2051.44 590.283H2040.22C2034.35 590.283 2028.74 592.419 2024.47 596.692L2007.65 613.513C2004.71 616.717 2000.7 618.319 1996.43 618.319H1932.62V666.648C1932.62 671.187 1929.15 674.658 1924.87 674.658H1911.79C1907.25 674.658 1903.78 671.187 1903.78 666.648V484.815C1903.78 480.276 1907.25 476.805 1911.79 476.805L1996.16 476.805C2000.44 476.805 2004.44 478.407 2007.65 481.344L2024.47 498.432C2028.74 502.705 2034.35 504.841 2040.22 504.841H2051.44ZM1932.62 589.482H2022.6C2026.87 589.482 2030.61 585.744 2030.61 581.472V513.652C2030.61 509.38 2026.87 505.642 2022.6 505.642L1932.62 505.642V589.482Z" fill="white"></path><path d="M2219.34 666.648V604.168H2129.36C2125.09 604.168 2121.35 607.906 2121.35 612.178V666.648C2121.35 671.187 2117.88 674.658 2113.61 674.658H2100.52C2095.98 674.658 2092.51 671.187 2092.51 666.648V611.377C2092.51 607.105 2095.98 603.367 2100.52 603.367H2111.74C2117.61 603.367 2123.22 601.231 2127.49 596.959L2144.31 580.137C2147.25 576.933 2151.52 575.331 2155.53 575.331H2219.34V513.652C2219.34 509.38 2215.6 505.642 2211.33 505.642H2129.36C2125.09 505.642 2121.35 509.38 2121.35 513.652V568.122C2121.35 572.661 2117.88 576.132 2113.61 576.132H2100.52C2095.98 576.132 2092.51 572.661 2092.51 568.122V540.086C2092.51 535.814 2094.12 531.808 2097.05 528.604L2114.14 511.516C2118.41 507.511 2120.55 501.903 2120.55 496.029V484.815C2120.55 480.276 2124.29 476.805 2128.56 476.805H2212.13C2216.41 476.805 2220.14 480.276 2220.14 484.815V496.029C2220.14 501.903 2222.28 507.511 2226.55 511.516L2243.37 528.604C2246.58 531.541 2248.18 535.547 2248.18 539.819V666.648C2248.18 671.187 2244.71 674.658 2240.17 674.658H2227.09C2222.81 674.658 2219.34 671.187 2219.34 666.648Z" fill="white"></path><path d="M2376.23 561.179H2404.53C2408.8 561.179 2412.81 562.781 2415.74 565.986L2432.83 582.807C2436.84 587.079 2442.71 589.482 2448.59 589.482H2459.8C2464.07 589.482 2467.81 592.953 2467.81 597.493V611.377C2467.81 615.649 2465.94 619.654 2463 622.591L2445.92 639.68C2441.91 643.952 2439.51 649.559 2439.51 655.433V666.648C2439.51 671.187 2436.04 674.658 2431.5 674.658H2319.89C2315.62 674.658 2312.14 671.187 2312.14 666.648V655.433C2312.14 649.559 2309.74 643.952 2305.47 639.68L2288.65 622.858C2285.44 619.921 2283.84 615.649 2283.84 611.644V540.086C2283.84 535.814 2285.44 531.541 2288.65 528.604L2305.47 511.516C2309.74 507.511 2312.14 501.903 2312.14 496.029V484.815C2312.14 480.276 2315.62 476.805 2319.89 476.805H2431.5C2436.04 476.805 2439.51 480.276 2439.51 484.815V496.029C2439.51 501.903 2441.91 507.511 2445.92 511.516L2465.41 531.007C2466.74 532.342 2467.54 534.479 2467.54 536.615V539.819C2467.54 544.358 2464.07 547.829 2459.8 547.829H2446.72C2442.18 547.829 2438.71 544.358 2438.71 540.086V513.652C2438.71 509.38 2435.24 505.642 2430.7 505.642H2320.69C2316.42 505.642 2312.68 509.38 2312.68 513.652V637.811C2312.68 642.083 2316.42 645.821 2320.69 645.821H2430.7C2435.24 645.821 2438.71 642.083 2438.71 637.811V598.294C2438.71 593.754 2435.24 590.283 2430.7 590.283H2376.23C2371.95 590.283 2368.22 586.545 2368.22 582.273V569.19C2368.22 564.918 2371.95 561.179 2376.23 561.179Z" fill="white"></path><path d="M2627.42 666.648V604.168L2537.44 604.168C2533.16 604.168 2529.42 607.906 2529.42 612.178V666.648C2529.42 671.187 2525.95 674.658 2521.68 674.658H2508.6C2504.06 674.658 2500.59 671.187 2500.59 666.648V611.377C2500.59 607.105 2504.06 603.367 2508.6 603.367H2519.81C2525.69 603.367 2531.29 601.231 2535.57 596.959L2552.39 580.137C2555.32 576.933 2559.6 575.331 2563.6 575.331L2627.42 575.331V513.652C2627.42 509.38 2623.68 505.642 2619.41 505.642H2537.44C2533.16 505.642 2529.42 509.38 2529.42 513.652V568.122C2529.42 572.661 2525.95 576.132 2521.68 576.132H2508.6C2504.06 576.132 2500.59 572.661 2500.59 568.122V540.086C2500.59 535.814 2502.19 531.808 2505.13 528.604L2522.22 511.516C2526.49 507.511 2528.62 501.903 2528.62 496.029V484.815C2528.62 480.276 2532.36 476.805 2536.63 476.805H2620.21C2624.48 476.805 2628.22 480.276 2628.22 484.815V496.029C2628.22 501.903 2630.35 507.511 2634.63 511.516L2651.45 528.604C2654.65 531.541 2656.25 535.547 2656.25 539.819V666.648C2656.25 671.187 2652.78 674.658 2648.24 674.658H2635.16C2630.89 674.658 2627.42 671.187 2627.42 666.648Z" fill="white"></path><path d="M2845.45 476.805H2858.53C2862.8 476.805 2866.54 480.276 2866.54 484.815V638.612C2866.54 642.884 2862.8 646.622 2858.53 646.622H2846.25C2841.98 646.622 2838.24 650.093 2838.24 654.365V666.648C2838.24 671.187 2834.77 674.658 2830.23 674.658H2803.26C2798.72 674.658 2795.25 671.187 2795.25 666.648V655.433C2795.25 649.559 2792.85 643.952 2788.84 639.68L2771.75 622.858C2768.81 619.921 2767.21 615.649 2767.21 611.644V533.411V513.652C2767.21 509.38 2763.47 505.642 2759.2 505.642H2733.57C2729.3 505.642 2725.56 509.38 2725.56 513.652V666.648C2725.56 671.187 2722.09 674.658 2717.82 674.658H2704.73C2700.19 674.658 2696.72 671.187 2696.72 666.648V512.851C2696.72 508.579 2700.19 504.841 2704.73 504.841H2717.02C2721.29 504.841 2724.76 501.369 2724.76 496.83V484.815C2724.76 480.276 2728.5 476.805 2732.77 476.805H2760C2764.28 476.805 2768.01 480.276 2768.01 484.815V496.029C2768.01 501.903 2770.15 507.511 2774.42 511.516L2791.24 528.604C2794.45 531.541 2796.05 535.547 2796.05 539.819V618.052V637.811C2796.05 642.083 2799.52 645.821 2804.06 645.821H2829.43C2833.96 645.821 2837.44 642.083 2837.44 637.811V484.815C2837.44 480.276 2841.17 476.805 2845.45 476.805Z" fill="white"></path><path d="M2909.23 666.648V512.851C2909.23 508.579 2912.71 504.841 2917.24 504.841H2929.53C2933.8 504.841 2937.27 501.369 2937.27 496.83V484.815C2937.27 480.276 2941.01 476.805 2945.28 476.805L3014.97 476.805C3019.24 476.805 3023.25 478.407 3026.18 481.344L3043.27 498.432C3047.54 502.705 3053.15 504.841 3059.03 504.841H3070.24C3074.51 504.841 3078.25 508.579 3078.25 512.851V638.612C3078.25 642.884 3074.51 646.622 3070.24 646.622H3059.03C3053.15 646.622 3047.54 648.758 3043.27 653.03L3026.18 670.119C3023.25 673.056 3019.24 674.658 3014.97 674.658H2917.24C2912.71 674.658 2909.23 671.187 2909.23 666.648ZM3049.15 637.811V513.652C3049.15 509.38 3045.68 505.642 3041.14 505.642L2946.08 505.642C2941.81 505.642 2938.07 509.38 2938.07 513.652V645.821H3041.14C3045.68 645.821 3049.15 642.083 3049.15 637.811Z" fill="white"></path><path d="M3243.57 666.648V604.168H3153.59C3149.32 604.168 3145.58 607.906 3145.58 612.178V666.648C3145.58 671.187 3142.11 674.658 3137.84 674.658H3124.75C3120.21 674.658 3116.74 671.187 3116.74 666.648V611.377C3116.74 607.105 3120.21 603.367 3124.75 603.367H3135.97C3141.84 603.367 3147.45 601.231 3151.72 596.959L3168.54 580.137C3171.48 576.933 3175.75 575.331 3179.76 575.331H3243.57V513.652C3243.57 509.38 3239.83 505.642 3235.56 505.642H3153.59C3149.32 505.642 3145.58 509.38 3145.58 513.652V568.122C3145.58 572.661 3142.11 576.132 3137.84 576.132H3124.75C3120.21 576.132 3116.74 572.661 3116.74 568.122V540.086C3116.74 535.814 3118.34 531.808 3121.28 528.604L3138.37 511.516C3142.64 507.511 3144.78 501.903 3144.78 496.029V484.815C3144.78 480.276 3148.52 476.805 3152.79 476.805H3236.36C3240.63 476.805 3244.37 480.276 3244.37 484.815V496.029C3244.37 501.903 3246.51 507.511 3250.78 511.516L3267.6 528.604C3270.81 531.541 3272.41 535.547 3272.41 539.819V666.648C3272.41 671.187 3268.94 674.658 3264.4 674.658H3251.31C3247.04 674.658 3243.57 671.187 3243.57 666.648Z" fill="white"></path><path fill-rule="evenodd" clip-rule="evenodd" d="M2373.74 110.969L1326.38 168.871L1343.12 471.828L2390.49 413.925L2373.74 110.969ZM1620.77 309.483H1609.55C1603.68 309.483 1598.07 307.079 1593.8 302.807L1576.71 285.986C1573.77 282.782 1569.77 281.18 1565.5 281.18H1495.81C1491.54 281.18 1487.8 277.708 1487.8 273.169V233.652C1487.8 229.38 1491.54 225.642 1495.81 225.642H1606.62C1611.16 225.642 1614.63 222.171 1614.63 217.632V204.815C1614.63 200.276 1611.16 196.805 1606.62 196.805H1521.97C1517.97 196.805 1513.7 198.407 1510.76 201.344L1493.94 218.433C1489.67 222.705 1484.06 224.841 1478.19 224.841H1466.97C1462.43 224.841 1458.96 228.579 1458.96 232.851V273.97C1458.96 278.509 1462.43 281.981 1466.97 281.981H1478.19C1484.06 281.981 1489.67 284.384 1493.94 288.389L1511.03 305.477C1513.96 308.414 1517.97 310.284 1522.24 310.284H1591.66C1596.2 310.284 1599.67 313.755 1599.67 318.294V357.811C1599.67 362.083 1596.2 365.821 1591.66 365.821H1481.12C1476.58 365.821 1473.11 369.292 1473.11 373.565V386.648C1473.11 391.187 1476.58 394.658 1481.12 394.658H1565.5C1569.77 394.658 1573.77 393.056 1576.71 390.119L1593.8 373.031C1598.07 368.758 1603.68 366.622 1609.55 366.622H1620.77C1625.04 366.622 1628.78 362.884 1628.78 358.612V317.493C1628.78 312.954 1625.04 309.483 1620.77 309.483ZM1779.3 196.805H1765.15C1761.14 196.805 1756.87 198.407 1753.93 201.344L1737.11 218.433C1732.84 222.438 1727.23 224.841 1721.36 224.841H1711.75C1705.87 224.841 1700.26 222.705 1696.26 218.433L1679.17 201.344C1676.23 198.407 1672.23 196.805 1667.96 196.805H1653.8C1649.27 196.805 1645.79 200.276 1645.79 204.815V217.632C1645.79 222.171 1649.27 225.642 1653.8 225.642H1694.12C1698.66 225.642 1702.13 229.38 1702.13 233.652V386.648C1702.13 391.187 1705.6 394.658 1710.14 394.658H1723.23C1727.5 394.658 1730.97 391.187 1730.97 386.648V233.652C1730.97 229.38 1734.71 225.642 1738.98 225.642H1779.3C1783.84 225.642 1787.31 222.171 1787.31 217.632V204.815C1787.31 200.276 1783.84 196.805 1779.3 196.805ZM1993.5 259.819V331.377C1993.5 335.649 1991.9 339.654 1988.96 342.859L1971.87 359.68C1967.86 363.952 1965.46 369.559 1965.46 375.434V386.648C1965.46 391.187 1961.99 394.658 1957.45 394.658H1845.84C1841.57 394.658 1837.83 391.187 1837.83 386.648V375.434C1837.83 369.559 1835.7 363.952 1831.42 359.68L1814.6 342.859C1811.4 339.921 1809.8 335.649 1809.8 331.644V260.086C1809.8 255.814 1811.4 251.809 1814.33 248.605L1831.42 231.516C1835.7 227.511 1837.83 221.904 1837.83 216.029V204.815C1837.83 200.276 1841.57 196.805 1845.84 196.805H1957.45C1961.99 196.805 1965.46 200.276 1965.46 204.815V216.029C1965.46 221.904 1967.86 227.511 1971.87 231.516L1988.96 248.605C1991.9 251.542 1993.5 255.547 1993.5 259.819ZM1846.64 365.821H1956.65C1961.19 365.821 1964.66 362.083 1964.66 357.811V233.652C1964.66 229.38 1961.19 225.642 1956.65 225.642H1846.64C1842.37 225.642 1838.63 229.38 1838.63 233.652V357.811C1838.63 362.083 1842.37 365.821 1846.64 365.821ZM2186.95 232.851C2186.95 228.579 2183.48 224.841 2178.94 224.841H2167.73C2161.85 224.841 2156.25 222.705 2151.97 218.433L2135.15 201.344C2131.95 198.407 2127.94 196.805 2123.67 196.805H2039.3C2034.76 196.805 2031.29 200.276 2031.29 204.815V386.648C2031.29 391.187 2034.76 394.658 2039.3 394.658H2052.38C2056.65 394.658 2060.12 391.187 2060.12 386.648V338.319H2123.94C2128.21 338.319 2132.21 336.717 2135.15 333.513L2151.97 316.692C2156.25 312.42 2161.85 310.284 2167.73 310.284H2178.94C2183.48 310.284 2186.95 306.545 2186.95 302.273V232.851ZM2150.1 309.482H2060.12V225.642H2150.1C2154.38 225.642 2158.11 229.38 2158.11 233.652V301.472C2158.11 305.744 2154.38 309.482 2150.1 309.482Z" fill="#E80505"></path><path fill-rule="evenodd" clip-rule="evenodd" d="M447.94 520.6C445.229 520.966 442.695 522.149 440.673 523.992C435.693 528.531 428.122 528.688 422.959 524.358L422.116 523.65C419.465 521.428 416.117 520.21 412.659 520.21H384.845C380.068 520.21 375.343 519.223 370.965 517.312L339.546 503.589C335.298 501.733 330.474 501.704 326.204 503.508C319.683 506.262 312.138 504.662 307.296 499.499L304.466 496.481C298.517 490.137 296.686 480.965 299.745 472.824L306.058 456.017C307.895 451.125 312.574 447.885 317.8 447.885C325.46 447.885 331.331 441.078 330.207 433.501L325.855 404.178C324.402 394.382 327.206 384.431 333.561 376.836L369.894 333.413C373.417 329.201 378.043 326.053 383.253 324.319C395.35 320.294 403.512 308.976 403.512 296.227V269.646C403.512 262.988 401.595 256.47 397.99 250.872L374.987 215.151C374.956 215.102 374.949 215.042 374.97 214.988C375.006 214.891 375.115 214.844 375.211 214.883L383.669 218.402C387.091 219.825 391.036 219.013 393.617 216.353L412.527 196.866C417.64 191.597 424.294 188.087 431.53 186.841L453.462 183.066C457.892 182.304 462.428 182.41 466.817 183.378L537.155 198.9L602.102 216.135C605.004 216.906 607.994 217.295 610.996 217.295H685.808C688.67 217.295 691.521 217.65 694.296 218.35L747.831 231.865C765.301 236.275 783.239 226.57 789.105 209.533L790.497 205.493C791.878 201.482 793.983 197.759 796.708 194.508L809.291 179.495C815.879 171.634 825.61 167.093 835.867 167.093H858.528C866.677 167.093 874.438 163.612 879.857 157.526C886.435 150.139 896.367 146.681 906.111 148.388L926.578 151.972C930.442 152.649 934.403 152.551 938.229 151.682L939.556 151.381C951.599 148.649 963.999 154.196 969.99 164.994L973.028 170.47C976.209 176.203 975.919 183.234 972.278 188.687C969.222 193.263 968.495 199.009 970.316 204.202L978.704 228.127C983.577 242.026 996.699 251.331 1011.43 251.331H1017.61C1027.83 251.331 1037.23 256.91 1042.13 265.88L1043.26 267.947C1047.15 275.053 1047.13 283.652 1043.21 290.74C1036.93 302.099 1040.97 316.394 1052.27 322.784L1069.84 332.727C1076.97 336.758 1085.5 337.484 1093.2 334.715C1099.86 332.322 1107.18 332.527 1113.69 335.292L1125.54 340.317C1133.07 343.513 1141.49 343.942 1149.31 341.53L1153.67 340.184C1167.98 335.768 1183.51 341.038 1192.18 353.252L1194.01 355.844C1200.52 365.009 1211.06 370.455 1222.3 370.455H1227.48C1231.6 370.455 1235.69 371.19 1239.56 372.625L1268.13 383.239C1272.05 384.694 1276.37 384.589 1280.21 382.946C1285.61 380.635 1291.84 381.41 1296.51 384.975L1316.74 400.421C1318.88 402.054 1320.59 404.187 1321.71 406.633C1324.52 412.78 1323.28 420.024 1318.58 424.881L1313.13 430.508C1308.09 435.708 1305.28 442.661 1305.28 449.899V470.387C1305.28 473.516 1305.7 476.63 1306.54 479.646L1312.61 501.566C1314.15 507.117 1313.46 513.048 1310.69 518.098C1306.81 525.172 1299.38 529.57 1291.31 529.57H1271.92C1263.68 529.57 1255.71 532.503 1249.44 537.845L1227.66 556.391C1221.75 561.427 1218.34 568.803 1218.34 576.569C1218.34 588.794 1209.98 599.432 1198.1 602.32L1165.6 610.223L1079.08 637.059C1076.44 637.878 1073.9 639.01 1071.53 640.43L1021.26 670.542C1010.8 676.805 1004.4 688.1 1004.4 700.29V705.642C1004.4 715.157 1008.31 724.255 1015.22 730.803L1045.13 759.166L1059.01 769.559C1064.63 773.772 1072.05 774.752 1078.58 772.145L1102.99 762.397C1108.22 760.309 1113.6 765.053 1112.18 770.504C1111.52 773.062 1109.45 775.012 1106.86 775.519L1078.55 781.059L1021.11 796.625C1016.98 797.743 1013.1 799.616 1009.65 802.148L976.991 826.138C974.706 827.817 971.829 828.476 969.041 827.961C962.799 826.807 959.087 820.324 961.251 814.356L966.369 800.246C969.904 790.498 966.476 779.59 958 773.617L927.711 752.273C927.136 751.868 926.45 751.651 925.746 751.651C922.289 751.651 921.025 747.099 923.987 745.316L956.316 725.864C963.234 721.701 965.156 712.538 960.495 705.946L950.867 692.329C944.734 683.656 934.398 678.969 923.833 680.071L883.843 684.242C881.543 684.482 879.237 683.84 877.391 682.445C873.298 679.353 872.554 673.496 875.746 669.478L880.448 663.56C889.042 652.741 881.338 636.781 867.521 636.781H817.617C808.286 636.781 799.348 640.542 792.824 647.214L762.227 678.504L729.979 715.048C728.426 716.808 727.278 718.888 726.617 721.14L723.279 732.508C721.651 738.054 714.91 740.167 710.408 736.542C708.109 734.691 704.986 734.235 702.254 735.351L669.636 748.672C668.369 749.189 666.931 749.08 665.756 748.376C663.399 746.964 662.925 743.747 664.775 741.715L680.792 724.126L697.377 699.778C698.611 697.968 699.27 695.828 699.27 693.637C699.27 687.613 704.154 682.729 710.178 682.729H726.033C734.314 682.729 742.129 678.896 747.197 672.348L749.278 669.659C761.368 654.04 757.492 631.419 740.892 620.716L738.169 618.961C728.266 612.576 722.283 601.599 722.283 589.817V577.011C722.283 571.25 720.848 565.58 718.107 560.513L700.385 527.751C695.722 519.13 687.628 512.885 678.106 510.561L661.131 506.419C654.97 504.916 649.34 501.752 644.853 497.272L639.652 492.08C635.399 487.834 630.115 484.766 624.318 483.178L588.66 473.406C580.595 471.196 571.96 472.913 565.355 478.042C560.697 481.659 554.967 483.622 549.069 483.622H547.248C538.46 483.622 530.062 487.251 524.039 493.652L514.487 503.803C509.034 509.597 501.754 513.341 493.869 514.404L447.94 520.6Z" fill="#FFB803"></path><path fill-rule="evenodd" clip-rule="evenodd" d="M327.735 -60.4294C330.97 -56.565 333.324 -52.0419 334.632 -47.1751L359.995 47.1476C360.784 50.0839 361.184 53.1113 361.184 56.1519V63.8356C361.184 76.0088 354.801 87.2906 344.366 93.5598L342.887 94.4484C337.484 97.6948 333.068 102.353 330.113 107.921L322.183 122.869C316.829 132.961 320.831 145.481 331.046 150.595C336.423 153.287 340.278 158.185 341.691 163.914C340.85 165.153 340.14 166.511 339.59 167.976L325.934 204.32C322.076 214.587 323.303 226.074 329.242 235.294L352.677 271.676C353.503 272.958 353.942 274.451 353.942 275.977C353.942 279.397 351.752 282.433 348.507 283.513L348.388 283.552C346.96 284.027 345.692 284.89 344.726 286.044L275.699 368.519C272.886 371.88 271.645 376.283 272.289 380.618L274.883 398.094C274.892 398.156 274.844 398.211 274.782 398.211C274.739 398.211 274.701 398.237 274.686 398.277L273.925 400.303L257.751 391.057C248.704 385.886 237.811 385.057 228.086 388.801L218.131 392.632C210.375 395.618 201.689 394.98 194.452 390.895C184.497 385.275 172.119 386.314 163.24 393.513L162.562 394.063C151.696 402.874 135.933 402.068 126.023 392.195L125.385 391.56C120.666 386.858 114.276 384.219 107.614 384.219C97.6423 384.219 88.61 378.334 84.5812 369.212L81.5703 362.395C76.0219 349.833 63.5828 341.728 49.8499 341.728H49.2173C37.3631 341.728 26.3302 335.673 19.9646 325.673L18.2263 322.942C11.8607 312.942 0.827877 306.887 -11.0263 306.887H-34.0537C-41.0937 306.887 -46.8008 312.594 -46.8008 319.634C-46.8008 326.674 -41.0937 332.381 -34.0537 332.381H-20.5023C-11.5122 332.381 -3.14492 336.973 1.68272 344.557L6.37931 351.935C12.4403 361.457 22.9453 367.222 34.2323 367.222C47.3082 367.222 59.1521 374.939 64.4349 386.9L66.3747 391.292C66.4099 391.372 66.4453 391.451 66.481 391.53C66.5111 391.597 66.5413 391.663 66.5718 391.729L66.6257 391.846H61.5174C56.2651 391.846 51.191 393.75 47.2357 397.206L32.3394 410.22C29.1334 413.021 26.4706 416.388 24.4842 420.154L21.5393 425.736C17.9779 432.487 12.2886 437.874 5.3537 441.062L-28.4892 456.621C-31.8926 458.186 -33.3595 462.231 -31.7499 465.614C-30.1701 468.933 -26.216 470.367 -22.8757 468.832L15.3233 451.27C22.2582 448.082 27.9475 442.695 31.5089 435.944L35.4246 428.521C37.411 424.756 40.0739 421.388 43.2799 418.587L53.4832 409.673C56.7519 406.817 60.9452 405.243 65.2857 405.243H76.5252C77.1277 405.243 77.7115 405.164 78.2669 405.015C83.0818 408.024 88.73 409.713 94.6477 409.713C102.825 409.713 110.668 412.953 116.461 418.724L121.518 423.762C132.989 435.189 151.233 436.122 163.809 425.924L168.297 422.285C175.69 416.29 185.998 415.425 194.287 420.104C200.314 423.507 207.546 424.037 214.005 421.551L225.931 416.961C235.656 413.218 246.548 414.046 255.595 419.218L264.834 424.498L245.125 476.951C244.824 477.752 244.555 478.558 244.316 479.37C243.34 478.725 242.436 477.953 241.631 477.063L239.132 474.302C233.801 468.414 225.567 466.103 217.951 468.358L211.62 470.234C206.124 471.861 200.287 471.941 194.749 470.465L193.725 470.192C181.499 466.933 168.469 470.591 159.727 479.737L148.242 491.752C141.459 498.847 131.392 501.759 121.869 499.379C116.262 497.978 110.355 498.391 104.998 500.558L78.6862 511.204C73.512 513.298 68.9196 516.609 65.2993 520.858L61.1443 525.733C55.5439 532.305 47.6932 536.551 39.1278 537.641L22.7222 539.728C16.9079 540.468 11.001 539.722 5.55328 537.559L-29.0301 523.833C-35.5696 521.238 -42.9751 524.434 -45.5724 530.972C-48.1707 537.514 -44.9731 544.923 -38.4312 547.519L2.2532 563.667C7.70092 565.829 13.6078 566.575 19.4221 565.836L52.1347 561.674C60.7001 560.584 68.5509 556.338 74.1513 549.766L80.6541 542.135C84.2745 537.887 88.8668 534.575 94.041 532.482L104.699 528.17C111.466 525.432 118.927 524.91 126.009 526.68C138.038 529.686 150.754 526.008 159.321 517.046L171.408 504.402C177.885 497.626 187.539 494.916 196.597 497.33L197.76 497.64C201.566 498.655 205.579 498.6 209.356 497.481L210.552 497.127C217.715 495.005 225.46 497.179 230.473 502.718C235.089 507.817 242.057 510.096 248.794 508.71L248.933 508.681C249.934 510.149 251.055 511.551 252.295 512.872L279.77 542.163C276.606 543.306 273.718 545.128 271.314 547.512L254.299 564.385C250.252 568.399 247.256 573.349 245.577 578.796L239.837 597.425C238.861 600.593 237.436 603.605 235.604 606.369L219.361 630.881L206.076 657.231C202.631 665.201 195.805 671.215 187.463 673.628L186.086 674.026L164.175 679.952C161.223 680.751 158.179 681.155 155.121 681.155H144.833C140.947 681.155 137.09 680.487 133.43 679.181L132.15 678.724C119.661 674.265 105.716 677.986 97.1086 688.074C92.4 693.592 85.9534 697.344 78.8293 698.711L71.5979 700.099C67.6477 700.857 63.8596 702.297 60.403 704.353L53.6235 708.387C48.2596 711.579 42.1338 713.263 35.8922 713.263H26.4014C19.5351 713.263 12.8584 711.012 7.39453 706.853L-7.34356 695.637C-12.8991 691.409 -20.8246 692.452 -25.0974 697.973C-29.4192 703.558 -28.3618 711.594 -22.7425 715.871L-2.16694 731.53C3.87003 736.124 11.2471 738.612 18.8335 738.612H42.9724C49.2139 738.612 55.3398 736.927 60.7036 733.736L62.4219 732.714V735.644C62.4219 738.513 62.9576 741.357 64.0016 744.03L74.5067 770.922C74.7448 771.531 75.1655 772.052 75.7111 772.414C77.4054 773.536 77.6244 775.939 76.161 777.35L72.6861 780.699C72.486 780.891 72.2995 781.094 72.1268 781.304L69.8776 778.948C67.2271 776.171 63.7712 774.298 59.9982 773.592L35.2176 768.957C32.1818 768.389 29.0458 768.734 26.2061 769.948C22.2846 771.625 17.8479 771.625 13.9264 769.948L13.7567 769.875C11.7624 769.023 9.61605 768.583 7.44715 768.583H-18.4161C-25.4782 768.583 -31.2031 774.308 -31.2031 781.37C-31.2031 788.432 -25.4782 794.157 -18.4161 794.157H0.332039C3.72384 794.157 7.08045 794.845 10.1992 796.178L12.2093 797.038C17.2275 799.183 22.905 799.183 27.9232 797.038C31.5572 795.484 35.5702 795.042 39.4549 795.769L43.9531 796.611C49.7992 797.704 55.154 800.607 59.2608 804.909L71.0002 817.206C72.6157 818.898 75.1453 819.34 77.2388 818.296L83.204 815.32C84.898 814.476 86.8071 815.995 86.3644 817.835L79.4134 837.772C78.8318 839.44 78.7344 841.239 79.1326 842.96L81.4098 852.804C82.0124 855.409 79.5774 857.694 77.0158 856.928C73.9799 856.019 71.4055 859.306 73.0151 862.036L91.6051 893.564C93.6244 896.989 91.7336 901.389 87.8593 902.281C85.1899 902.895 83.2985 905.272 83.2985 908.011V917.046C83.2985 922.885 86.2556 928.327 91.1548 931.504L102.043 938.565C104.071 939.88 105.956 941.403 107.667 943.11L112.954 948.385L119.061 953.801C124.342 958.484 132.416 958.009 137.111 952.739C141.822 947.452 141.345 939.345 136.047 934.647L130.547 929.77L121.542 920.786C121.393 920.637 121.229 920.505 121.053 920.39C119.441 919.345 119.203 917.079 120.563 915.722L124.904 911.391C127.481 908.821 127.99 904.832 126.141 901.697L124.933 899.647C123.429 897.096 123.012 894.049 123.777 891.188L126 882.87C129.175 870.992 124.718 858.386 114.784 851.143L107.154 845.581C106.295 844.955 105.691 844.041 105.452 843.006C105.264 842.192 105.309 841.343 105.584 840.555L110.994 825.038L114.189 811.756C116.606 801.71 111.721 791.56 102.859 787.001L109.197 780.892C114.555 775.729 113.754 766.932 107.551 762.822L100.199 757.951C96.9859 755.822 94.5092 752.753 93.107 749.164L88.8768 738.335C88.022 736.147 87.5834 733.818 87.5834 731.469V725.18C87.5834 724.398 87.512 723.632 87.3754 722.89L95.41 721.348C100.668 720.339 105.425 717.57 108.9 713.497L111.162 710.847C116.153 704.998 124.238 702.84 131.479 705.425C133.478 706.139 135.584 706.504 137.706 706.504H149.141C149.219 707.767 149.526 709.037 150.085 710.256C150.644 711.474 151.428 712.575 152.397 713.501L172.37 732.577C176.643 736.657 178.972 742.366 178.773 748.271C178.588 753.773 180.599 759.123 184.361 763.141L194.499 773.97C196.079 775.657 198.287 776.615 200.599 776.615H202.845C204.623 776.615 206.249 777.616 207.05 779.204L207.169 779.44C207.631 780.357 208.425 781.063 209.39 781.416C211.807 782.299 212.793 785.187 211.421 787.364L210.259 789.209C209.071 791.093 209.418 793.56 211.08 795.043L211.251 795.195C213.119 796.863 213.195 799.76 211.417 801.523C210.081 802.849 209.75 804.884 210.597 806.565L215.843 816.97C217.123 819.509 219.522 821.3 222.32 821.804C225.235 822.33 227.709 824.249 228.943 826.942L229.176 827.449C230.824 831.046 234.419 833.353 238.376 833.353H247.456C250.603 833.353 253.428 835.287 254.566 838.221C255.31 840.14 256.798 841.677 258.692 842.482L277.915 850.653C277.94 850.664 277.966 850.664 277.99 850.658C277.994 850.656 277.997 850.655 278.001 850.654C278.009 850.65 278.016 850.646 278.023 850.641C278.038 850.631 278.05 850.616 278.059 850.599C278.111 850.489 278.278 850.532 278.269 850.654L278.14 852.574C278.13 852.735 278.2 852.89 278.328 852.987L280.27 854.469C282.511 856.179 282.908 859.397 281.15 861.6L276.215 867.782C274.41 870.043 273.427 872.851 273.427 875.745V893.411C273.427 897.007 273.986 900.581 275.085 904.004L278.057 913.271C280.064 919.526 283.806 925.082 288.848 929.293L298.274 937.167C298.94 937.722 299.552 938.338 300.103 939.007L301.51 940.711C302.674 942.123 303.311 943.895 303.311 945.725C303.311 950.076 306.838 953.603 311.189 953.603H316.118C323.191 953.603 328.925 947.869 328.925 940.796V939.053C328.925 935.674 327.749 932.4 325.599 929.794L319.642 922.573C318.279 920.92 316.766 919.397 315.121 918.024L310.231 913.939C305.699 910.154 302.335 905.16 300.532 899.538L300.436 899.24C299.547 896.469 299.078 893.581 299.044 890.673C299.908 894.506 302.755 897.835 306.929 899.027L319.082 902.496C321.893 903.298 324.839 903.506 327.735 903.107L340.106 901.402C345.018 900.726 350.02 901.257 354.679 902.95L383.551 909.781C387.976 910.829 392.564 910.995 397.053 910.272L411.22 907.989C415.067 907.369 418.991 907.402 422.827 908.086L438.322 910.851L455.78 915.211C465.251 917.577 475.281 915.841 483.406 910.429L509.415 893.105C512.721 890.903 516.381 889.285 520.235 888.323L544.865 882.171C546.643 881.727 548.374 881.113 550.035 880.339C555.174 877.943 560.909 877.124 566.513 877.985L566.897 878.044C571.209 878.707 575.324 880.303 578.955 882.722L580.75 883.917C584.885 886.672 589.756 888.141 594.725 888.141C602.09 888.141 609.103 891.374 613.875 896.983C617.978 901.806 623.751 904.901 630.039 905.649L648.347 907.826C655.349 908.659 661.7 903.659 662.535 896.657C663.369 889.653 658.367 883.299 651.363 882.466L645.934 881.82L652.33 850.969L670.084 835.693C670.834 835.047 671.535 834.347 672.182 833.598L691.908 810.733L703.496 805.682C706.461 804.39 708.978 802.447 710.93 800.08C711.25 800.317 711.566 800.561 711.878 800.812C728.312 814.039 752.913 806.329 758.858 786.088L769.71 749.135C771.141 744.263 773.624 739.765 776.984 735.959L798.398 711.699L799.91 710.153C807.841 702.045 820.561 701.091 829.611 707.927L849.825 723.194C852.893 725.51 852.646 730.193 849.352 732.175C847.443 733.323 846.43 735.521 846.797 737.719L852.463 771.647C855.254 788.362 869.718 800.611 886.665 800.611H910.382C910.825 800.611 911.257 800.748 911.618 801.003C912.41 801.561 912.73 802.579 912.4 803.49L904.216 826.049C897.145 845.539 909.269 866.713 929.656 870.481L970.653 878.058C980.061 879.797 989.769 877.571 997.481 871.908L1031.45 846.962C1034.9 844.431 1038.78 842.559 1042.91 841.441L1089.74 828.754L1129.68 820.939C1142.77 818.377 1153.23 808.536 1156.58 795.626L1166.98 755.582C1171.33 738.855 1162.69 721.481 1146.73 714.845L1131 708.3C1122.63 704.822 1113.24 704.755 1104.82 708.114L1082.35 717.087C1078.28 718.71 1073.64 717.82 1070.47 714.809C1065.08 709.699 1066.05 700.857 1072.42 697.042L1092.41 685.072C1094.39 683.889 1096.5 682.945 1098.7 682.263L1178.75 657.442L1241.25 642.247C1256.8 638.469 1267.74 624.548 1267.74 608.552V593.765C1267.74 589.311 1269.69 585.081 1273.08 582.193C1275.83 579.853 1279.32 578.568 1282.93 578.568H1313.13C1325.79 578.568 1337.44 571.67 1343.53 560.573L1361.19 528.38C1365.54 520.456 1366.62 511.148 1364.21 502.438L1355.34 470.451C1354.91 468.87 1354.68 467.237 1354.68 465.596C1354.68 460.875 1356.52 456.34 1359.81 452.949L1368.84 443.618C1378.78 433.354 1381.41 418.043 1375.46 405.052L1363.41 378.741C1361.04 373.573 1357.44 369.065 1352.92 365.616L1307.86 331.224C1300.53 325.632 1290.76 324.416 1282.29 328.04C1276.26 330.618 1269.47 330.783 1263.33 328.501L1245.64 321.932C1243.61 321.179 1241.47 320.794 1239.3 320.794C1233.41 320.794 1227.88 317.937 1224.46 313.128L1211.76 295.232C1203.1 283.021 1187.57 277.752 1173.26 282.166L1151.94 288.743C1144.12 291.154 1135.71 290.725 1128.18 287.531L1116.12 282.418C1108.93 279.368 1102.98 273.979 1099.23 267.125L1068.17 210.292C1065.28 204.989 1059.71 201.69 1053.67 201.69H1040.7C1033.03 201.69 1028.46 193.14 1032.72 186.763C1034.72 183.774 1034.88 179.919 1033.13 176.776L997.689 112.906C990.21 99.4273 974.731 92.5044 959.698 95.9142L937.896 100.86C933.413 101.876 928.772 101.992 924.244 101.199L890.341 95.2627C878.773 93.2373 866.982 97.3412 859.171 106.111C855.481 110.254 850.876 113.381 845.794 115.293L845.607 114.928C843.492 110.809 842.389 106.246 842.389 101.616V94.3087C842.389 87.3051 840.076 80.4976 835.809 74.9442L825.373 61.3644C824.884 60.7274 824.773 59.8771 825.082 59.1358C825.523 58.082 826.685 57.5278 827.781 57.8494L842.373 62.1314C845.404 63.0206 848.606 63.1496 851.698 62.5069L884.116 55.7688C891.637 54.2055 898.371 50.0534 903.146 44.0358L910.541 34.7167C917.197 26.3284 916.156 14.2048 908.168 7.07375L907.177 6.18969C903.512 2.9172 901.415 -1.76358 901.415 -6.67766C901.415 -14.8508 895.679 -21.9018 887.677 -23.5651L876.384 -25.9124C869.342 -27.3761 864.978 -34.4573 866.835 -41.4058C868.652 -48.2047 864.512 -55.1654 857.67 -56.8131L847.813 -59.1869C841.643 -60.6728 836.392 -64.705 833.364 -70.2825L829.5 -77.398L810.486 -107.119C806.675 -113.076 798.761 -114.824 792.796 -111.025C786.813 -107.215 785.06 -99.2726 788.882 -93.2982L807.373 -64.3957L818.383 -44.1161C820.046 -41.0536 822.929 -38.8397 826.317 -38.0238C833.04 -36.4046 837.11 -29.5641 835.324 -22.8826L835.16 -22.2696C833.243 -15.0978 837.748 -7.78885 845.016 -6.27811L867.932 -1.51498C872.487 -0.568222 875.752 3.44536 875.752 8.09763C875.752 10.8948 876.945 13.5592 879.032 15.422L882.19 18.2414C885.047 20.7912 885.419 25.1263 883.039 28.1257C881.987 29.4508 880.504 30.3652 878.848 30.7094L856.309 35.3942C850.89 36.5206 845.277 36.2945 839.966 34.7361L834.951 33.2644C821.328 29.2667 806.877 36.156 801.406 49.2574C797.557 58.4731 798.937 69.0441 805.022 76.9633L809.545 82.8496C814.202 88.9089 816.726 96.3367 816.726 103.978V106.566C816.726 110.284 817.331 113.964 818.509 117.467H812.683C802.428 117.467 792.698 122.006 786.11 129.865L749.391 173.662C748.944 174.195 748.598 174.806 748.372 175.464C747.409 178.258 744.468 179.849 741.603 179.126L700.35 168.715C697.576 168.015 694.726 167.661 691.865 167.661H617.347C614.345 167.661 611.356 167.271 608.455 166.501L548.731 150.657L467.872 132.818C463.484 131.849 458.949 131.743 454.521 132.506L404.613 141.093C399.001 142.059 393.84 144.781 389.874 148.867L386.263 152.587C381.255 157.747 373.843 159.648 367.049 157.67L366.254 146.837C365.917 142.255 363.195 138.188 359.086 136.131L357.121 135.147C351.651 132.409 349.508 125.704 352.375 120.3C353.303 118.551 354.69 117.087 356.388 116.068L369.826 107.994C380.26 101.725 386.644 90.4431 386.644 78.2699V52.7743C386.644 49.7341 386.244 46.707 385.455 43.7711L357.763 -59.2287C356.454 -64.096 354.1 -68.6194 350.865 -72.4841L313.78 -116.785C309.26 -122.184 301.218 -122.892 295.825 -118.365C290.442 -113.847 289.736 -105.823 294.247 -100.434L327.735 -60.4294ZM666.692 800.159C660.356 800.237 654.033 798.578 648.454 795.238L620.303 778.38C607.909 770.958 602.045 757.278 603.718 744.176C602.111 741.501 600.5 738.771 598.967 736.104C596.488 731.79 594.126 727.491 592.297 723.783C591.385 721.936 590.533 720.088 589.851 718.37C589.26 716.883 588.434 714.618 588.115 712.219C587.642 708.674 588.164 704.746 588.623 701.975C589.152 698.788 589.946 695.258 590.812 691.82C592.55 684.923 594.768 677.661 596.366 672.8C596.917 671.125 597.68 669.559 598.615 668.129L602.121 662.766L589.695 642.43L579.61 623.324L572.608 604.507L556.206 591.795C554.935 590.81 553.787 589.675 552.788 588.415L542.914 575.965C540.852 573.366 539.469 570.294 538.891 567.027L536.245 552.101C531.093 556.707 524.663 559.684 517.769 560.614L476.305 566.206C469.322 567.148 462.792 570.195 457.583 574.941L455.612 576.737C442.781 588.429 423.281 588.832 409.978 577.679L409.541 577.313C403.298 572.079 395.411 569.21 387.263 569.21H374.369C369.594 569.21 364.87 568.224 360.493 566.313L343.705 558.982C336.505 555.839 328.33 555.789 321.092 558.845C316.83 560.644 312.311 561.347 307.895 561.029C306.872 561.507 305.794 561.885 304.673 562.152L297.384 563.887C291.848 565.205 286.782 568.021 282.741 572.028L276.882 577.838C272.835 581.852 269.839 586.802 268.16 592.25L263.212 608.308C262.236 611.477 260.811 614.489 258.979 617.252L241.55 643.554L229.274 667.901L225.865 675.791C221.757 685.297 213.616 692.469 203.668 695.346L193.028 698.423L177.839 702.531L186.61 710.908C188.654 712.86 191.371 713.949 194.196 713.949C200.407 713.949 205.383 719.094 205.174 725.302L204.526 744.598C204.469 746.295 205.089 747.945 206.249 749.185C207.459 750.477 209.149 751.21 210.919 751.21H215.236C219.123 751.21 222.679 753.399 224.428 756.87C225.606 759.206 227.63 761.007 230.087 761.905L240.796 765.818C246.822 768.019 249.28 775.219 245.86 780.646L244.669 782.536C242.734 785.606 243.3 789.625 246.008 792.042L248.236 794.031C250.222 795.803 250.303 798.884 248.413 800.758L248.123 801.046C246.921 802.238 246.59 804.054 247.296 805.593C247.953 807.028 249.387 807.948 250.965 807.948H268.945C269.642 807.948 270.277 807.547 270.577 806.918C270.858 806.331 271.432 805.94 272.082 805.894L288.202 804.752C292.921 804.417 297.589 805.898 301.253 808.89L328.053 830.78C332.583 834.481 329.967 841.821 324.117 841.821H319.592C315.762 841.821 313.797 845.969 315.518 848.879C316.783 849.078 318.039 849.472 319.245 850.074L336.858 858.873C339.737 860.311 340.8 863.882 339.178 866.66C336.837 870.671 340.145 875.617 344.746 874.983L348.544 874.459C349.741 874.294 350.96 874.424 352.096 874.836L362.017 878.441L384.498 883.76C388.923 884.807 393.51 884.974 397.999 884.25L411.438 882.085C415.285 881.465 419.209 881.498 423.045 882.182L443.675 885.863L451.009 887.695C460.481 890.061 470.51 888.324 478.635 882.913L498.92 869.402C502.226 867.2 505.886 865.582 509.74 864.619L535.723 858.13C537.872 857.593 539.965 856.851 541.973 855.915L544.608 854.687C550.821 851.79 557.753 850.8 564.529 851.841L576.946 853.75C580.88 854.354 584.635 855.811 587.947 858.017C592.436 861.007 597.709 862.603 603.103 862.603H605.597C611.653 862.603 617.478 864.62 622.195 868.25L627.286 843.692C628.182 839.372 630.481 835.47 633.825 832.592L652.787 816.276L666.692 800.159ZM564.227 560.997L559.354 533.501C561.521 532.926 563.773 532.628 566.056 532.628H569.092C572.934 532.628 576.666 531.349 579.701 528.993C584.004 525.653 589.629 524.534 594.883 525.974L600.153 527.417C604.871 528.71 609.172 531.207 612.634 534.662L619.572 541.587C624.06 546.065 629.69 549.228 635.849 550.731L644.939 552.948C654.461 555.271 662.555 561.515 667.219 570.135L668.569 572.632C671.312 577.7 672.747 583.371 672.747 589.134V621.508C672.747 627.863 667.595 633.015 661.24 633.015C654.884 633.015 649.732 638.168 649.732 644.523V670.749C649.732 677.714 647.635 684.518 643.713 690.274L641.768 693.129L618.802 718.342C617.574 716.112 616.492 714.062 615.614 712.281C614.871 710.774 614.345 709.606 614.014 708.772L613.996 708.725C613.982 708.69 613.969 708.657 613.957 708.626C613.993 708.206 614.073 707.435 614.273 706.23C614.639 704.022 615.247 701.254 616.024 698.174C617.484 692.378 619.374 686.125 620.816 681.685L625.959 673.819C630.185 667.355 630.312 659.035 626.285 652.446L612.306 629.571L603.39 612.678L596.379 593.837C595.08 590.345 592.831 587.286 589.886 585.003L572.707 571.689L564.227 560.997ZM304.148 873.73C301.77 876.865 300.174 880.5 299.463 884.333C299.687 883.728 299.968 883.132 300.307 882.551L303.459 877.152C304.089 876.074 304.3 874.872 304.148 873.73ZM358.323 205.344C364.29 204.657 368.883 199.904 369.514 194.085C371.8 193.716 374.217 193.957 376.519 194.914C381.413 196.95 387.055 195.788 390.747 191.984L403.186 179.17C408.299 173.902 414.952 170.393 422.188 169.148L453.788 163.71C458.217 162.948 462.751 163.054 467.14 164.022L541.475 180.422L604.445 197.128C607.347 197.897 610.336 198.287 613.338 198.287H688.045C690.906 198.287 693.756 198.641 696.53 199.341L743.276 211.139C756.416 214.455 769.905 207.156 774.318 194.344C775.358 191.327 776.942 188.526 778.992 186.081L800.445 160.491C807.034 152.633 816.763 148.093 827.018 148.093H840.374C841.232 148.181 842.104 148.183 842.974 148.093H849.119C857.846 148.093 866.157 144.366 871.962 137.849C879.008 129.938 889.646 126.235 900.081 128.062L925.024 132.43C929.552 133.223 934.192 133.107 938.675 132.09L944.021 130.878C959.054 127.468 974.533 134.391 982.012 147.869L994.344 170.091C997.865 176.435 997.544 184.213 993.515 190.246C990.133 195.309 989.329 201.667 991.344 207.413L993.075 212.349C997.269 224.31 1008.56 232.317 1021.24 232.317H1024.69C1037.37 232.317 1049.04 239.237 1055.12 250.363L1066 270.278C1069.01 275.776 1068.99 282.43 1065.96 287.913C1061.1 296.7 1064.23 307.761 1072.97 312.703L1074.67 313.665C1079.81 316.571 1085.96 317.094 1091.51 315.098L1094.26 314.111C1100.57 311.844 1107.5 312.039 1113.67 314.657L1126.51 320.102C1134.04 323.296 1142.46 323.725 1150.27 321.314L1161.08 317.981C1175.38 313.568 1190.91 318.836 1199.58 331.047L1204.15 337.496C1210.35 346.231 1220.4 351.42 1231.11 351.42C1235.04 351.42 1238.94 352.121 1242.62 353.488L1266.29 362.278C1271.05 364.046 1276.31 363.918 1280.98 361.921C1287.55 359.112 1295.12 360.055 1300.79 364.388L1328.2 385.301C1332.72 388.751 1336.32 393.258 1338.68 398.426L1339.43 400.045C1345.03 412.277 1342.55 426.693 1333.19 436.357C1327.3 442.447 1324 450.593 1324 459.072V467.509C1324 470.639 1324.42 473.754 1325.26 476.771L1331.31 498.626C1333.73 507.336 1332.65 516.645 1328.3 524.568L1325.35 529.946C1319.26 541.044 1307.61 547.941 1294.95 547.941H1278.79C1270.56 547.941 1262.59 550.874 1256.32 556.213L1248.08 563.222C1241.08 569.18 1237.05 577.909 1237.05 587.1C1237.05 601.564 1227.16 614.152 1213.1 617.569L1170.56 627.911L1086.74 653.902C1084.1 654.721 1081.56 655.852 1079.19 657.273L1033.47 684.652C1027.03 688.507 1023.09 695.458 1023.09 702.96C1023.09 708.817 1025.5 714.417 1029.75 718.446L1057.19 744.462C1065.66 750.804 1076.82 752.278 1086.65 748.355L1111.14 738.577C1115.35 736.896 1120.06 736.93 1124.24 738.671C1132.23 741.992 1136.55 750.689 1134.38 759.061L1131.25 771.107C1128.18 782.9 1118.63 791.891 1106.67 794.231L1082.76 798.91L1029.34 813.382C1025.21 814.5 1021.32 816.372 1017.88 818.903L988.028 840.825C981.574 845.565 973.449 847.427 965.575 845.972L963.217 845.536C946.815 842.505 937.062 825.471 942.75 809.792C946.903 798.346 942.877 785.536 932.923 778.523L929.151 775.866C923.718 772.039 917.235 769.985 910.589 769.985H894.775C888.15 769.985 882.496 765.196 881.405 758.662C880.488 753.173 883.019 747.682 887.787 744.814L932.278 718.05C937.588 714.856 939.063 707.823 935.485 702.764C933.261 699.619 929.511 697.919 925.68 698.319L885.688 702.489C878.673 703.22 871.641 701.263 866.013 697.012L851.554 686.092C846.991 682.646 846.163 676.118 849.72 671.641C855.019 664.973 850.271 655.135 841.754 655.135H819.616C814.003 655.135 808.628 657.396 804.703 661.409L775.89 690.866L748.755 721.607C745.854 724.894 743.711 728.777 742.476 732.983L736.716 752.595C733.45 763.715 719.934 767.951 710.906 760.685C706.296 756.974 700.034 756.06 694.556 758.296L676.61 765.623C669.885 768.369 662.261 767.789 656.029 764.057C643.52 756.566 641.005 739.495 650.825 728.716L665.928 712.134L676.807 696.167C679.161 692.713 680.419 688.63 680.419 684.451C680.419 672.958 689.736 663.642 701.228 663.642H722.515C727.148 663.642 731.52 661.498 734.356 657.835C739.731 650.893 738.008 640.837 730.628 636.081L717.074 627.344C708.572 621.864 703.435 612.441 703.435 602.326V581.393C703.435 575.63 701.999 569.959 699.257 564.891L687.744 543.614C683.08 534.994 674.987 528.75 665.465 526.428L651.477 523.015C645.317 521.512 639.688 518.35 635.2 513.871L629.797 508.479C625.544 504.233 620.26 501.167 614.464 499.579L590.952 493.137C583.953 491.22 576.46 492.71 570.727 497.16C566.685 500.298 561.712 502.001 556.594 502.001H554.312C546.12 502.001 538.291 505.384 532.676 511.349L523.478 521.121C518.025 526.914 510.747 530.656 502.862 531.72L458.886 537.651C454.383 538.258 450.171 540.223 446.813 543.283C438.539 550.823 425.915 551.042 417.336 543.85C413.292 540.459 408.161 538.583 402.883 538.583H380.788C376.013 538.583 371.289 537.597 366.912 535.686L341.039 524.389C335.671 522.045 329.576 522.008 324.179 524.286C315.94 527.766 306.405 525.744 300.286 519.221L287.718 505.822C278.683 496.19 275.903 482.263 280.548 469.901L294.071 433.91C295.218 430.859 298.136 428.838 301.396 428.838C306.175 428.838 309.838 424.591 309.136 419.864L305.553 395.725C304.342 387.566 306.678 379.279 311.972 372.954L360.265 315.252C362.819 312.201 366.17 309.92 369.946 308.664C378.714 305.747 384.629 297.545 384.629 288.304V274.846C384.629 268.186 382.711 261.668 379.105 256.069L359.09 224.995C355.851 219.967 355.182 213.703 357.286 208.105L358.323 205.344Z" fill="#0075FF"></path></g><defs><clipPath id="clip0_9_110"><rect width="3476.31" height="891.185" fill="white"></rect></clipPath></defs></svg> 